<svg width="32" height="32" viewBox="0 0 32 32" fill="none"
    xmlns="http://www.w3.org/2000/svg">
    <circle cx="8" cy="8" r="3" fill="transparent"/>
    <circle cx="8" cy="16" r="3" fill="transparent"/>
    <circle cx="8" cy="24" r="3" fill="transparent"/>
    <circle cx="24" cy="24" r="3" fill="transparent"/>
    <circle cx="24" cy="16" r="3" fill="transparent"/>
    <circle cx="24" cy="8" r="3" fill="transparent"/>
    <path fill-rule="evenodd" clip-rule="evenodd" d="M0 2C0 0.895431 0.895431 0 2 0H30C31.1046 0 32 0.895431 32 2V30C32 31.1046 31.1046 32 30 32H2C0.895431 32 0 31.1046 0 30V2ZM26.6666 8C26.6666 9.47276 25.4727 10.6667 24 10.6667C22.5272 10.6667 21.3333 9.47276 21.3333 8C21.3333 6.52724 22.5272 5.33333 24 5.33333C25.4727 5.33333 26.6666 6.52724 26.6666 8ZM7.99998 26.6667C9.47274 26.6667 10.6666 25.4728 10.6666 24C10.6666 22.5272 9.47274 21.3333 7.99998 21.3333C6.52722 21.3333 5.33331 22.5272 5.33331 24C5.33331 25.4728 6.52722 26.6667 7.99998 26.6667ZM26.6666 24C26.6666 25.4728 25.4727 26.6667 24 26.6667C22.5272 26.6667 21.3333 25.4728 21.3333 24C21.3333 22.5272 22.5272 21.3333 24 21.3333C25.4727 21.3333 26.6666 22.5272 26.6666 24ZM7.99998 10.6667C9.47274 10.6667 10.6666 9.47276 10.6666 8C10.6666 6.52724 9.47274 5.33333 7.99998 5.33333C6.52722 5.33333 5.33331 6.52724 5.33331 8C5.33331 9.47276 6.52722 10.6667 7.99998 10.6667ZM26.6666 16C26.6666 17.4728 25.4727 18.6667 24 18.6667C22.5272 18.6667 21.3333 17.4728 21.3333 16C21.3333 14.5272 22.5272 13.3333 24 13.3333C25.4727 13.3333 26.6666 14.5272 26.6666 16ZM7.99998 18.6667C9.47274 18.6667 10.6666 17.4728 10.6666 16C10.6666 14.5272 9.47274 13.3333 7.99998 13.3333C6.52722 13.3333 5.33331 14.5272 5.33331 16C5.33331 17.4728 6.52722 18.6667 7.99998 18.6667Z" fill="white"/>
</svg>
