<svg width="32" height="32" viewBox="0 0 32 32" fill="none"
    xmlns="http://www.w3.org/2000/svg">
    <circle cx="8" cy="8" r="3" fill="transparent"/>
    <circle cx="24" cy="8" r="3" fill="transparent"/>
    <circle cx="8" cy="24" r="3" fill="transparent"/>
    <circle cx="24" cy="24" r="3" fill="transparent"/>
    <circle cx="16" cy="16" r="3" fill="transparent"/>
    <path fill-rule="evenodd" clip-rule="evenodd" d="M2 0C0.895431 0 0 0.895431 0 2V30C0 31.1046 0.895431 32 2 32H30C31.1046 32 32 31.1046 32 30V2C32 0.895431 31.1046 0 30 0H2ZM24 10.6667C25.4727 10.6667 26.6666 9.47276 26.6666 8C26.6666 6.52724 25.4727 5.33333 24 5.33333C22.5272 5.33333 21.3333 6.52724 21.3333 8C21.3333 9.47276 22.5272 10.6667 24 10.6667ZM10.6666 24C10.6666 25.4728 9.47274 26.6667 7.99998 26.6667C6.52722 26.6667 5.33331 25.4728 5.33331 24C5.33331 22.5272 6.52722 21.3333 7.99998 21.3333C9.47274 21.3333 10.6666 22.5272 10.6666 24ZM24 26.6667C25.4727 26.6667 26.6666 25.4728 26.6666 24C26.6666 22.5272 25.4727 21.3333 24 21.3333C22.5272 21.3333 21.3333 22.5272 21.3333 24C21.3333 25.4728 22.5272 26.6667 24 26.6667ZM10.6666 8C10.6666 9.47276 9.47274 10.6667 7.99998 10.6667C6.52722 10.6667 5.33331 9.47276 5.33331 8C5.33331 6.52724 6.52722 5.33333 7.99998 5.33333C9.47274 5.33333 10.6666 6.52724 10.6666 8ZM16 18.6667C17.4727 18.6667 18.6666 17.4728 18.6666 16C18.6666 14.5272 17.4727 13.3333 16 13.3333C14.5272 13.3333 13.3333 14.5272 13.3333 16C13.3333 17.4728 14.5272 18.6667 16 18.6667Z" fill="white"/>
</svg>
